<mxfile host="app.diagrams.net" agent="Mozilla/5.0 (Windows NT 10.0; Win64; x64) AppleWebKit/537.36 (KHTML, like Gecko) Chrome/130.0.0.0 Safari/537.36" version="24.8.4">
  <diagram name="Страница — 1" id="M0-9FOMKnF73tF99gYo6">
    <mxGraphModel dx="3447" dy="3311" grid="1" gridSize="10" guides="1" tooltips="1" connect="1" arrows="1" fold="1" page="1" pageScale="1" pageWidth="1654" pageHeight="2336" math="0" shadow="0">
      <root>
        <mxCell id="0" />
        <mxCell id="1" parent="0" />
        <mxCell id="7KNHdA3k9laCxYrj6f59-1" value="Сотрудник лизинга" style="shape=umlLifeline;perimeter=lifelinePerimeter;whiteSpace=wrap;html=1;container=1;collapsible=0;recursiveResize=0;outlineConnect=0;rounded=1;shadow=0;comic=0;labelBackgroundColor=none;strokeWidth=1;fontFamily=Verdana;fontSize=12;align=center;" parent="1" vertex="1">
          <mxGeometry x="240" y="80" width="100" height="720" as="geometry" />
        </mxCell>
        <mxCell id="7KNHdA3k9laCxYrj6f59-4" value="" style="html=1;points=[];perimeter=orthogonalPerimeter;" parent="7KNHdA3k9laCxYrj6f59-1" vertex="1">
          <mxGeometry x="45" y="220" width="10" height="40" as="geometry" />
        </mxCell>
        <mxCell id="7KNHdA3k9laCxYrj6f59-110" value="" style="html=1;points=[];perimeter=orthogonalPerimeter;" parent="7KNHdA3k9laCxYrj6f59-1" vertex="1">
          <mxGeometry x="45" y="60" width="10" height="40" as="geometry" />
        </mxCell>
        <mxCell id="7KNHdA3k9laCxYrj6f59-112" value="" style="html=1;verticalAlign=bottom;endArrow=open;dashed=1;endSize=8;" parent="7KNHdA3k9laCxYrj6f59-1" edge="1">
          <mxGeometry relative="1" as="geometry">
            <mxPoint x="209.5" y="180" as="sourcePoint" />
            <mxPoint x="-205" y="180" as="targetPoint" />
            <Array as="points">
              <mxPoint x="-10" y="180" />
            </Array>
          </mxGeometry>
        </mxCell>
        <mxCell id="7KNHdA3k9laCxYrj6f59-39" value="" style="html=1;points=[];perimeter=orthogonalPerimeter;" parent="7KNHdA3k9laCxYrj6f59-1" vertex="1">
          <mxGeometry x="45" y="330" width="10" height="40" as="geometry" />
        </mxCell>
        <mxCell id="7KNHdA3k9laCxYrj6f59-9" value="Система учета" style="shape=umlLifeline;perimeter=lifelinePerimeter;whiteSpace=wrap;html=1;container=1;collapsible=0;recursiveResize=0;outlineConnect=0;rounded=1;shadow=0;comic=0;labelBackgroundColor=none;strokeWidth=1;fontFamily=Verdana;fontSize=12;align=center;" parent="1" vertex="1">
          <mxGeometry x="400" y="80" width="100" height="720" as="geometry" />
        </mxCell>
        <mxCell id="7KNHdA3k9laCxYrj6f59-10" value="" style="html=1;points=[];perimeter=orthogonalPerimeter;" parent="7KNHdA3k9laCxYrj6f59-9" vertex="1">
          <mxGeometry x="45" y="140" width="10" height="40" as="geometry" />
        </mxCell>
        <mxCell id="7KNHdA3k9laCxYrj6f59-11" value="" style="html=1;points=[];perimeter=orthogonalPerimeter;" parent="7KNHdA3k9laCxYrj6f59-9" vertex="1">
          <mxGeometry x="45" y="260" width="10" height="40" as="geometry" />
        </mxCell>
        <mxCell id="7KNHdA3k9laCxYrj6f59-115" value="" style="html=1;points=[];perimeter=orthogonalPerimeter;" parent="7KNHdA3k9laCxYrj6f59-9" vertex="1">
          <mxGeometry x="45" y="370" width="10" height="40" as="geometry" />
        </mxCell>
        <mxCell id="7KNHdA3k9laCxYrj6f59-116" value="Проверка оплаты" style="html=1;verticalAlign=bottom;endArrow=block;" parent="7KNHdA3k9laCxYrj6f59-9" edge="1">
          <mxGeometry width="80" relative="1" as="geometry">
            <mxPoint x="-110" y="370" as="sourcePoint" />
            <mxPoint x="50" y="370" as="targetPoint" />
          </mxGeometry>
        </mxCell>
        <mxCell id="7KNHdA3k9laCxYrj6f59-19" value="Клиент" style="shape=umlLifeline;perimeter=lifelinePerimeter;whiteSpace=wrap;html=1;container=1;collapsible=0;recursiveResize=0;outlineConnect=0;rounded=1;shadow=0;comic=0;labelBackgroundColor=none;strokeWidth=1;fontFamily=Verdana;fontSize=12;align=center;" parent="1" vertex="1">
          <mxGeometry x="-20" y="80" width="100" height="720" as="geometry" />
        </mxCell>
        <mxCell id="7KNHdA3k9laCxYrj6f59-20" value="" style="html=1;points=[];perimeter=orthogonalPerimeter;" parent="7KNHdA3k9laCxYrj6f59-19" vertex="1">
          <mxGeometry x="45" y="40" width="10" height="20" as="geometry" />
        </mxCell>
        <mxCell id="7KNHdA3k9laCxYrj6f59-35" value="" style="html=1;points=[];perimeter=orthogonalPerimeter;" parent="7KNHdA3k9laCxYrj6f59-19" vertex="1">
          <mxGeometry x="45" y="100" width="10" height="40" as="geometry" />
        </mxCell>
        <mxCell id="7KNHdA3k9laCxYrj6f59-26" value="" style="shape=umlActor;verticalLabelPosition=bottom;verticalAlign=top;html=1;outlineConnect=0;" parent="1" vertex="1">
          <mxGeometry x="12.5" y="10" width="35" height="60" as="geometry" />
        </mxCell>
        <mxCell id="7KNHdA3k9laCxYrj6f59-27" value="" style="shape=umlActor;verticalLabelPosition=bottom;verticalAlign=top;html=1;outlineConnect=0;" parent="1" vertex="1">
          <mxGeometry x="272.5" y="10" width="35" height="60" as="geometry" />
        </mxCell>
        <mxCell id="7KNHdA3k9laCxYrj6f59-29" value="&lt;font style=&quot;font-size: 19px&quot;&gt;Выбор и оформление аренды&lt;/font&gt;" style="text;whiteSpace=wrap;html=1;align=center;" parent="1" vertex="1">
          <mxGeometry x="-23.75" y="-40" width="627.5" height="30" as="geometry" />
        </mxCell>
        <mxCell id="7KNHdA3k9laCxYrj6f59-32" style="edgeStyle=orthogonalEdgeStyle;rounded=0;orthogonalLoop=1;jettySize=auto;html=1;" parent="1" source="7KNHdA3k9laCxYrj6f59-20" target="7KNHdA3k9laCxYrj6f59-1" edge="1">
          <mxGeometry relative="1" as="geometry">
            <Array as="points">
              <mxPoint x="220" y="140" />
              <mxPoint x="220" y="140" />
            </Array>
            <mxPoint x="160" y="160" as="targetPoint" />
          </mxGeometry>
        </mxCell>
        <mxCell id="7KNHdA3k9laCxYrj6f59-33" value="Регистрация" style="edgeLabel;html=1;align=center;verticalAlign=middle;resizable=0;points=[];" parent="7KNHdA3k9laCxYrj6f59-32" vertex="1" connectable="0">
          <mxGeometry x="-0.2378" y="1" relative="1" as="geometry">
            <mxPoint x="17" y="1" as="offset" />
          </mxGeometry>
        </mxCell>
        <mxCell id="7KNHdA3k9laCxYrj6f59-36" value="Данные о доступных авто" style="html=1;verticalAlign=bottom;endArrow=open;dashed=1;endSize=8;" parent="1" source="7KNHdA3k9laCxYrj6f59-2" target="7KNHdA3k9laCxYrj6f59-19" edge="1">
          <mxGeometry y="213" relative="1" as="geometry">
            <mxPoint x="450" y="320" as="sourcePoint" />
            <mxPoint x="370" y="320" as="targetPoint" />
            <Array as="points" />
            <mxPoint x="211" y="-30" as="offset" />
          </mxGeometry>
        </mxCell>
        <mxCell id="7KNHdA3k9laCxYrj6f59-38" value="Отправка счета на оплату" style="html=1;verticalAlign=bottom;endArrow=open;dashed=1;endSize=8;exitX=1;exitY=1;exitDx=0;exitDy=0;exitPerimeter=0;" parent="1" source="7KNHdA3k9laCxYrj6f59-11" target="7KNHdA3k9laCxYrj6f59-19" edge="1">
          <mxGeometry relative="1" as="geometry">
            <mxPoint x="290" y="360" as="sourcePoint" />
            <mxPoint x="210" y="360" as="targetPoint" />
          </mxGeometry>
        </mxCell>
        <mxCell id="7KNHdA3k9laCxYrj6f59-45" value="Система учета" style="shape=umlLifeline;perimeter=lifelinePerimeter;whiteSpace=wrap;html=1;container=1;collapsible=0;recursiveResize=0;outlineConnect=0;rounded=1;shadow=0;comic=0;labelBackgroundColor=none;strokeWidth=1;fontFamily=Verdana;fontSize=12;align=center;" parent="1" vertex="1">
          <mxGeometry x="1240" y="80" width="100" height="720" as="geometry" />
        </mxCell>
        <mxCell id="7KNHdA3k9laCxYrj6f59-46" value="" style="html=1;points=[];perimeter=orthogonalPerimeter;" parent="7KNHdA3k9laCxYrj6f59-45" vertex="1">
          <mxGeometry x="45" y="80" width="10" height="40" as="geometry" />
        </mxCell>
        <mxCell id="7KNHdA3k9laCxYrj6f59-48" value="Складской рабочий" style="shape=umlLifeline;perimeter=lifelinePerimeter;whiteSpace=wrap;html=1;container=1;collapsible=0;recursiveResize=0;outlineConnect=0;rounded=1;shadow=0;comic=0;labelBackgroundColor=none;strokeWidth=1;fontFamily=Verdana;fontSize=12;align=center;" parent="1" vertex="1">
          <mxGeometry x="1360" y="80" width="100" height="720" as="geometry" />
        </mxCell>
        <mxCell id="7KNHdA3k9laCxYrj6f59-53" value="&lt;font style=&quot;font-size: 19px&quot;&gt;Выдача автомобиля&lt;/font&gt;" style="text;whiteSpace=wrap;html=1;align=center;" parent="1" vertex="1">
          <mxGeometry x="1110" y="-50" width="627.5" height="30" as="geometry" />
        </mxCell>
        <mxCell id="7KNHdA3k9laCxYrj6f59-57" value="" style="group" parent="1" vertex="1" connectable="0">
          <mxGeometry x="1100" y="10" width="100" height="790" as="geometry" />
        </mxCell>
        <mxCell id="7KNHdA3k9laCxYrj6f59-58" value="Сотрудник лизинга" style="shape=umlLifeline;perimeter=lifelinePerimeter;whiteSpace=wrap;html=1;container=1;collapsible=0;recursiveResize=0;outlineConnect=0;rounded=1;shadow=0;comic=0;labelBackgroundColor=none;strokeWidth=1;fontFamily=Verdana;fontSize=12;align=center;" parent="7KNHdA3k9laCxYrj6f59-57" vertex="1">
          <mxGeometry y="70" width="100" height="720" as="geometry" />
        </mxCell>
        <mxCell id="7KNHdA3k9laCxYrj6f59-61" value="" style="shape=umlActor;verticalLabelPosition=bottom;verticalAlign=top;html=1;outlineConnect=0;" parent="7KNHdA3k9laCxYrj6f59-57" vertex="1">
          <mxGeometry x="32.5" width="35" height="60" as="geometry" />
        </mxCell>
        <mxCell id="7KNHdA3k9laCxYrj6f59-59" value="" style="html=1;points=[];perimeter=orthogonalPerimeter;" parent="7KNHdA3k9laCxYrj6f59-57" vertex="1">
          <mxGeometry x="45" y="110" width="10" height="40" as="geometry" />
        </mxCell>
        <mxCell id="7KNHdA3k9laCxYrj6f59-60" value="Подверждение аренды" style="html=1;verticalAlign=bottom;endArrow=block;" parent="7KNHdA3k9laCxYrj6f59-57" edge="1">
          <mxGeometry width="80" relative="1" as="geometry">
            <mxPoint x="55" y="150" as="sourcePoint" />
            <mxPoint x="194.5" y="150" as="targetPoint" />
          </mxGeometry>
        </mxCell>
        <mxCell id="7KNHdA3k9laCxYrj6f59-62" value="" style="group" parent="1" vertex="1" connectable="0">
          <mxGeometry x="1360" y="10" width="100" height="790" as="geometry" />
        </mxCell>
        <mxCell id="7KNHdA3k9laCxYrj6f59-63" value="" style="shape=umlActor;verticalLabelPosition=bottom;verticalAlign=top;html=1;outlineConnect=0;" parent="7KNHdA3k9laCxYrj6f59-62" vertex="1">
          <mxGeometry x="32.5" width="35" height="60" as="geometry" />
        </mxCell>
        <mxCell id="7KNHdA3k9laCxYrj6f59-64" value="Механик" style="shape=umlLifeline;perimeter=lifelinePerimeter;whiteSpace=wrap;html=1;container=1;collapsible=0;recursiveResize=0;outlineConnect=0;rounded=1;shadow=0;comic=0;labelBackgroundColor=none;strokeWidth=1;fontFamily=Verdana;fontSize=12;align=center;" parent="7KNHdA3k9laCxYrj6f59-62" vertex="1">
          <mxGeometry y="70" width="100" height="720" as="geometry" />
        </mxCell>
        <mxCell id="7KNHdA3k9laCxYrj6f59-121" value="" style="html=1;points=[];perimeter=orthogonalPerimeter;" parent="7KNHdA3k9laCxYrj6f59-64" vertex="1">
          <mxGeometry x="45" y="120" width="10" height="40" as="geometry" />
        </mxCell>
        <mxCell id="7KNHdA3k9laCxYrj6f59-122" value="Выдача документов" style="html=1;verticalAlign=bottom;endArrow=block;entryX=0.1;entryY=0.025;entryDx=0;entryDy=0;entryPerimeter=0;" parent="7KNHdA3k9laCxYrj6f59-62" target="7KNHdA3k9laCxYrj6f59-121" edge="1">
          <mxGeometry width="80" relative="1" as="geometry">
            <mxPoint x="-70" y="190" as="sourcePoint" />
            <mxPoint x="40" y="190" as="targetPoint" />
          </mxGeometry>
        </mxCell>
        <mxCell id="7KNHdA3k9laCxYrj6f59-127" value="" style="html=1;points=[];perimeter=orthogonalPerimeter;" parent="7KNHdA3k9laCxYrj6f59-62" vertex="1">
          <mxGeometry x="45" y="270" width="10" height="40" as="geometry" />
        </mxCell>
        <mxCell id="7KNHdA3k9laCxYrj6f59-74" value="" style="group" parent="1" vertex="1" connectable="0">
          <mxGeometry x="1490" y="10" width="100" height="790" as="geometry" />
        </mxCell>
        <mxCell id="7KNHdA3k9laCxYrj6f59-75" value="Клиент" style="shape=umlLifeline;perimeter=lifelinePerimeter;whiteSpace=wrap;html=1;container=1;collapsible=0;recursiveResize=0;outlineConnect=0;rounded=1;shadow=0;comic=0;labelBackgroundColor=none;strokeWidth=1;fontFamily=Verdana;fontSize=12;align=center;" parent="7KNHdA3k9laCxYrj6f59-74" vertex="1">
          <mxGeometry y="70" width="100" height="720" as="geometry" />
        </mxCell>
        <mxCell id="7KNHdA3k9laCxYrj6f59-125" value="" style="html=1;points=[];perimeter=orthogonalPerimeter;" parent="7KNHdA3k9laCxYrj6f59-75" vertex="1">
          <mxGeometry x="45" y="160" width="10" height="40" as="geometry" />
        </mxCell>
        <mxCell id="7KNHdA3k9laCxYrj6f59-79" value="" style="shape=umlActor;verticalLabelPosition=bottom;verticalAlign=top;html=1;outlineConnect=0;" parent="7KNHdA3k9laCxYrj6f59-74" vertex="1">
          <mxGeometry x="32.5" width="35" height="60" as="geometry" />
        </mxCell>
        <mxCell id="7KNHdA3k9laCxYrj6f59-65" value="Подверждение" style="html=1;verticalAlign=bottom;endArrow=open;dashed=1;endSize=8;entryX=0.8;entryY=0.025;entryDx=0;entryDy=0;entryPerimeter=0;" parent="7KNHdA3k9laCxYrj6f59-74" target="7KNHdA3k9laCxYrj6f59-127" edge="1">
          <mxGeometry x="0.1046" y="-11" relative="1" as="geometry">
            <mxPoint x="50.5" y="270" as="sourcePoint" />
            <mxPoint x="-70" y="270" as="targetPoint" />
            <mxPoint as="offset" />
          </mxGeometry>
        </mxCell>
        <mxCell id="7KNHdA3k9laCxYrj6f59-130" value="Выдача ключей" style="html=1;verticalAlign=bottom;endArrow=block;" parent="7KNHdA3k9laCxYrj6f59-74" target="7KNHdA3k9laCxYrj6f59-75" edge="1">
          <mxGeometry width="80" relative="1" as="geometry">
            <mxPoint x="-84" y="310" as="sourcePoint" />
            <mxPoint x="45" y="310" as="targetPoint" />
          </mxGeometry>
        </mxCell>
        <mxCell id="7KNHdA3k9laCxYrj6f59-83" value="Система учета" style="shape=umlLifeline;perimeter=lifelinePerimeter;whiteSpace=wrap;html=1;container=1;collapsible=0;recursiveResize=0;outlineConnect=0;rounded=1;shadow=0;comic=0;labelBackgroundColor=none;strokeWidth=1;fontFamily=Verdana;fontSize=12;align=center;" parent="1" vertex="1">
          <mxGeometry x="2230" y="90" width="100" height="720" as="geometry" />
        </mxCell>
        <mxCell id="7KNHdA3k9laCxYrj6f59-137" value="" style="html=1;points=[];perimeter=orthogonalPerimeter;" parent="7KNHdA3k9laCxYrj6f59-83" vertex="1">
          <mxGeometry x="46" y="265" width="10" height="55" as="geometry" />
        </mxCell>
        <mxCell id="7KNHdA3k9laCxYrj6f59-87" value="Сотрудник лизинга" style="shape=umlLifeline;perimeter=lifelinePerimeter;whiteSpace=wrap;html=1;container=1;collapsible=0;recursiveResize=0;outlineConnect=0;rounded=1;shadow=0;comic=0;labelBackgroundColor=none;strokeWidth=1;fontFamily=Verdana;fontSize=12;align=center;" parent="1" vertex="1">
          <mxGeometry x="2350" y="90" width="100" height="720" as="geometry" />
        </mxCell>
        <mxCell id="7KNHdA3k9laCxYrj6f59-134" value="" style="html=1;points=[];perimeter=orthogonalPerimeter;" parent="7KNHdA3k9laCxYrj6f59-87" vertex="1">
          <mxGeometry x="45" y="210" width="10" height="55" as="geometry" />
        </mxCell>
        <mxCell id="7KNHdA3k9laCxYrj6f59-139" value="" style="html=1;points=[];perimeter=orthogonalPerimeter;" parent="7KNHdA3k9laCxYrj6f59-87" vertex="1">
          <mxGeometry x="45" y="320" width="10" height="55" as="geometry" />
        </mxCell>
        <mxCell id="7KNHdA3k9laCxYrj6f59-91" value="&lt;span style=&quot;font-size: 19px&quot;&gt;Возврат автомобиля&lt;/span&gt;" style="text;whiteSpace=wrap;html=1;align=center;" parent="1" vertex="1">
          <mxGeometry x="1990" y="-40" width="627.5" height="30" as="geometry" />
        </mxCell>
        <mxCell id="7KNHdA3k9laCxYrj6f59-92" value="" style="group" parent="1" vertex="1" connectable="0">
          <mxGeometry x="1980" y="20" width="100" height="790" as="geometry" />
        </mxCell>
        <mxCell id="7KNHdA3k9laCxYrj6f59-93" value="Клиент" style="shape=umlLifeline;perimeter=lifelinePerimeter;whiteSpace=wrap;html=1;container=1;collapsible=0;recursiveResize=0;outlineConnect=0;rounded=1;shadow=0;comic=0;labelBackgroundColor=none;strokeWidth=1;fontFamily=Verdana;fontSize=12;align=center;" parent="7KNHdA3k9laCxYrj6f59-92" vertex="1">
          <mxGeometry y="70" width="100" height="720" as="geometry" />
        </mxCell>
        <mxCell id="7KNHdA3k9laCxYrj6f59-96" value="" style="shape=umlActor;verticalLabelPosition=bottom;verticalAlign=top;html=1;outlineConnect=0;" parent="7KNHdA3k9laCxYrj6f59-92" vertex="1">
          <mxGeometry x="32.5" width="35" height="60" as="geometry" />
        </mxCell>
        <mxCell id="7KNHdA3k9laCxYrj6f59-99" value="" style="html=1;points=[];perimeter=orthogonalPerimeter;" parent="7KNHdA3k9laCxYrj6f59-92" vertex="1">
          <mxGeometry x="45" y="110" width="10" height="60" as="geometry" />
        </mxCell>
        <mxCell id="7KNHdA3k9laCxYrj6f59-97" value="" style="group" parent="1" vertex="1" connectable="0">
          <mxGeometry x="2100" y="20" width="270" height="790" as="geometry" />
        </mxCell>
        <mxCell id="7KNHdA3k9laCxYrj6f59-98" value="Механик" style="shape=umlLifeline;perimeter=lifelinePerimeter;whiteSpace=wrap;html=1;container=1;collapsible=0;recursiveResize=0;outlineConnect=0;rounded=1;shadow=0;comic=0;labelBackgroundColor=none;strokeWidth=1;fontFamily=Verdana;fontSize=12;align=center;" parent="7KNHdA3k9laCxYrj6f59-97" vertex="1">
          <mxGeometry y="70" width="100" height="720" as="geometry" />
        </mxCell>
        <mxCell id="7KNHdA3k9laCxYrj6f59-84" value="" style="html=1;points=[];perimeter=orthogonalPerimeter;" parent="7KNHdA3k9laCxYrj6f59-98" vertex="1">
          <mxGeometry x="43" y="100" width="10" height="55" as="geometry" />
        </mxCell>
        <mxCell id="7KNHdA3k9laCxYrj6f59-131" value="" style="html=1;points=[];perimeter=orthogonalPerimeter;" parent="7KNHdA3k9laCxYrj6f59-98" vertex="1">
          <mxGeometry x="43" y="155" width="10" height="55" as="geometry" />
        </mxCell>
        <mxCell id="7KNHdA3k9laCxYrj6f59-132" value="" style="edgeStyle=segmentEdgeStyle;endArrow=classic;html=1;curved=0;rounded=0;endSize=8;startSize=8;exitX=1;exitY=0.982;exitDx=0;exitDy=0;exitPerimeter=0;" parent="7KNHdA3k9laCxYrj6f59-98" source="7KNHdA3k9laCxYrj6f59-84" edge="1">
          <mxGeometry width="50" height="50" relative="1" as="geometry">
            <mxPoint x="110" y="150" as="sourcePoint" />
            <mxPoint x="50" y="170" as="targetPoint" />
            <Array as="points">
              <mxPoint x="120" y="154" />
              <mxPoint x="120" y="170" />
              <mxPoint x="52" y="170" />
            </Array>
          </mxGeometry>
        </mxCell>
        <mxCell id="7KNHdA3k9laCxYrj6f59-103" value="" style="shape=umlActor;verticalLabelPosition=bottom;verticalAlign=top;html=1;outlineConnect=0;" parent="7KNHdA3k9laCxYrj6f59-97" vertex="1">
          <mxGeometry x="30" width="35" height="60" as="geometry" />
        </mxCell>
        <mxCell id="7KNHdA3k9laCxYrj6f59-100" value="Возврат авто" style="html=1;verticalAlign=bottom;endArrow=block;entryX=0.4;entryY=0;entryDx=0;entryDy=0;entryPerimeter=0;" parent="7KNHdA3k9laCxYrj6f59-97" target="7KNHdA3k9laCxYrj6f59-84" edge="1">
          <mxGeometry width="80" relative="1" as="geometry">
            <mxPoint x="-70" y="170" as="sourcePoint" />
            <mxPoint x="40" y="170" as="targetPoint" />
          </mxGeometry>
        </mxCell>
        <mxCell id="7KNHdA3k9laCxYrj6f59-136" value="&lt;span style=&quot;color: rgb(0, 0, 0); font-family: Helvetica; font-size: 11px; font-style: normal; font-variant-ligatures: normal; font-variant-caps: normal; font-weight: 400; letter-spacing: normal; orphans: 2; text-align: center; text-indent: 0px; text-transform: none; widows: 2; word-spacing: 0px; -webkit-text-stroke-width: 0px; white-space: nowrap; background-color: rgb(255, 255, 255); text-decoration-thickness: initial; text-decoration-style: initial; text-decoration-color: initial; display: inline !important; float: none;&quot;&gt;Проверка состояния&lt;/span&gt;" style="text;whiteSpace=wrap;html=1;" parent="7KNHdA3k9laCxYrj6f59-97" vertex="1">
          <mxGeometry x="50" y="180" width="220" height="40" as="geometry" />
        </mxCell>
        <mxCell id="7KNHdA3k9laCxYrj6f59-138" value="Внесение инфы" style="html=1;verticalAlign=bottom;endArrow=open;dashed=1;endSize=8;" parent="7KNHdA3k9laCxYrj6f59-97" edge="1">
          <mxGeometry relative="1" as="geometry">
            <mxPoint x="300.5" y="335" as="sourcePoint" />
            <mxPoint x="180" y="335" as="targetPoint" />
          </mxGeometry>
        </mxCell>
        <mxCell id="7KNHdA3k9laCxYrj6f59-140" value="Расчет залога" style="html=1;verticalAlign=bottom;endArrow=block;entryX=0.4;entryY=0;entryDx=0;entryDy=0;entryPerimeter=0;" parent="7KNHdA3k9laCxYrj6f59-97" edge="1">
          <mxGeometry width="80" relative="1" as="geometry">
            <mxPoint x="180" y="390" as="sourcePoint" />
            <mxPoint x="297" y="390" as="targetPoint" />
          </mxGeometry>
        </mxCell>
        <mxCell id="7KNHdA3k9laCxYrj6f59-90" value="Возврат залога" style="html=1;verticalAlign=bottom;endArrow=open;dashed=1;endSize=8;" parent="7KNHdA3k9laCxYrj6f59-97" target="7KNHdA3k9laCxYrj6f59-93" edge="1">
          <mxGeometry relative="1" as="geometry">
            <mxPoint x="300.5" y="445" as="sourcePoint" />
            <mxPoint x="60" y="445" as="targetPoint" />
          </mxGeometry>
        </mxCell>
        <mxCell id="7KNHdA3k9laCxYrj6f59-109" value="Подтверждение регистрации" style="edgeLabel;html=1;align=center;verticalAlign=middle;resizable=0;points=[];" parent="1" vertex="1" connectable="0">
          <mxGeometry x="159" y="190" as="geometry" />
        </mxCell>
        <mxCell id="7KNHdA3k9laCxYrj6f59-111" value="" style="html=1;verticalAlign=bottom;endArrow=open;dashed=1;endSize=8;exitX=0.2;exitY=1.05;exitDx=0;exitDy=0;exitPerimeter=0;entryX=0.1;entryY=0.025;entryDx=0;entryDy=0;entryPerimeter=0;" parent="1" source="7KNHdA3k9laCxYrj6f59-110" target="7KNHdA3k9laCxYrj6f59-35" edge="1">
          <mxGeometry relative="1" as="geometry">
            <mxPoint x="287" y="182" as="sourcePoint" />
            <mxPoint x="30" y="200" as="targetPoint" />
            <Array as="points" />
          </mxGeometry>
        </mxCell>
        <mxCell id="7KNHdA3k9laCxYrj6f59-21" value="Выбор авто" style="html=1;verticalAlign=bottom;endArrow=block;" parent="1" edge="1">
          <mxGeometry width="80" relative="1" as="geometry">
            <mxPoint x="25" y="220" as="sourcePoint" />
            <mxPoint x="444.5" y="220" as="targetPoint" />
          </mxGeometry>
        </mxCell>
        <mxCell id="7KNHdA3k9laCxYrj6f59-2" value="" style="html=1;points=[];perimeter=orthogonalPerimeter;" parent="1" vertex="1">
          <mxGeometry x="25" y="260" width="10" height="40" as="geometry" />
        </mxCell>
        <mxCell id="7KNHdA3k9laCxYrj6f59-113" value="Оформление аренды" style="html=1;verticalAlign=bottom;endArrow=block;" parent="1" edge="1">
          <mxGeometry width="80" relative="1" as="geometry">
            <mxPoint x="29" y="300" as="sourcePoint" />
            <mxPoint x="289" y="300" as="targetPoint" />
            <Array as="points">
              <mxPoint x="229" y="300" />
            </Array>
          </mxGeometry>
        </mxCell>
        <mxCell id="7KNHdA3k9laCxYrj6f59-5" value="Расчет стоимости" style="html=1;verticalAlign=bottom;endArrow=block;entryX=0.5;entryY=0;entryDx=0;entryDy=0;entryPerimeter=0;" parent="1" target="7KNHdA3k9laCxYrj6f59-11" edge="1">
          <mxGeometry width="80" relative="1" as="geometry">
            <mxPoint x="285" y="340" as="sourcePoint" />
            <mxPoint x="444.5" y="340" as="targetPoint" />
          </mxGeometry>
        </mxCell>
        <mxCell id="7KNHdA3k9laCxYrj6f59-25" value="Оплата счёта" style="html=1;verticalAlign=bottom;endArrow=block;" parent="1" edge="1">
          <mxGeometry width="80" relative="1" as="geometry">
            <mxPoint x="35" y="410" as="sourcePoint" />
            <mxPoint x="290" y="410" as="targetPoint" />
          </mxGeometry>
        </mxCell>
        <mxCell id="7KNHdA3k9laCxYrj6f59-22" value="" style="html=1;points=[];perimeter=orthogonalPerimeter;" parent="1" vertex="1">
          <mxGeometry x="25" y="380" width="10" height="30" as="geometry" />
        </mxCell>
        <mxCell id="7KNHdA3k9laCxYrj6f59-119" value="Подтверждание оплаты" style="html=1;verticalAlign=bottom;endArrow=open;dashed=1;endSize=8;exitX=1;exitY=1;exitDx=0;exitDy=0;exitPerimeter=0;entryX=0.3;entryY=0;entryDx=0;entryDy=0;entryPerimeter=0;" parent="1" edge="1">
          <mxGeometry relative="1" as="geometry">
            <mxPoint x="455" y="490" as="sourcePoint" />
            <mxPoint x="288" y="490" as="targetPoint" />
          </mxGeometry>
        </mxCell>
        <mxCell id="7KNHdA3k9laCxYrj6f59-126" value="Проверка состояния" style="html=1;verticalAlign=bottom;endArrow=block;entryX=0.4;entryY=0;entryDx=0;entryDy=0;entryPerimeter=0;" parent="1" target="7KNHdA3k9laCxYrj6f59-125" edge="1">
          <mxGeometry width="80" relative="1" as="geometry">
            <mxPoint x="1410" y="240" as="sourcePoint" />
            <mxPoint x="1526" y="241" as="targetPoint" />
          </mxGeometry>
        </mxCell>
        <mxCell id="7KNHdA3k9laCxYrj6f59-135" value="Отчет о состоянии" style="html=1;verticalAlign=bottom;endArrow=block;" parent="1" target="7KNHdA3k9laCxYrj6f59-87" edge="1">
          <mxGeometry x="0.002" width="80" relative="1" as="geometry">
            <mxPoint x="2150" y="300" as="sourcePoint" />
            <mxPoint x="2267" y="300" as="targetPoint" />
            <mxPoint as="offset" />
          </mxGeometry>
        </mxCell>
        <mxCell id="Wq5MEw_ND0PJ1KeF6aVw-1" value="" style="shape=umlActor;verticalLabelPosition=bottom;verticalAlign=top;html=1;outlineConnect=0;" vertex="1" parent="1">
          <mxGeometry x="2382.5" y="20" width="35" height="60" as="geometry" />
        </mxCell>
      </root>
    </mxGraphModel>
  </diagram>
</mxfile>
